<svg width="294" height="58" viewBox="0 0 294 58" fill="none" xmlns="http://www.w3.org/2000/svg">
<g filter="url(#filter0_bd)">
<path d="M77.0273 32H74.0977L68.3945 22.6445V32H65.4648V17.7812H68.3945L74.1074 27.1562V17.7812H77.0273V32ZM89.6234 32C89.4932 31.7461 89.3988 31.4303 89.3402 31.0527C88.6566 31.8145 87.768 32.1953 86.6742 32.1953C85.6391 32.1953 84.7797 31.8958 84.0961 31.2969C83.419 30.6979 83.0805 29.9427 83.0805 29.0312C83.0805 27.9115 83.4939 27.0521 84.3207 26.4531C85.154 25.8542 86.3552 25.5514 87.9242 25.5449H89.223V24.9395C89.223 24.4512 89.0961 24.0605 88.8422 23.7676C88.5948 23.4746 88.2009 23.3281 87.6605 23.3281C87.1853 23.3281 86.8109 23.4421 86.5375 23.6699C86.2706 23.8978 86.1371 24.2103 86.1371 24.6074H83.3148C83.3148 23.9954 83.5036 23.429 83.8813 22.9082C84.2589 22.3874 84.7927 21.9805 85.4828 21.6875C86.1729 21.388 86.9477 21.2383 87.807 21.2383C89.1091 21.2383 90.141 21.5671 90.9027 22.2246C91.671 22.8757 92.0551 23.7936 92.0551 24.9785V29.5586C92.0616 30.5612 92.2016 31.3197 92.475 31.834V32H89.6234ZM87.2895 30.0371C87.7061 30.0371 88.0902 29.946 88.4418 29.7637C88.7934 29.5749 89.0538 29.3242 89.223 29.0117V27.1953H88.1684C86.7556 27.1953 86.0036 27.6836 85.9125 28.6602L85.9027 28.8262C85.9027 29.1777 86.0264 29.4674 86.2738 29.6953C86.5212 29.9232 86.8598 30.0371 87.2895 30.0371ZM101.702 18.8359V21.4336H103.509V23.5039H101.702V28.7773C101.702 29.168 101.777 29.4479 101.927 29.6172C102.076 29.7865 102.363 29.8711 102.786 29.8711C103.098 29.8711 103.375 29.8483 103.616 29.8027V31.9414C103.063 32.1107 102.493 32.1953 101.907 32.1953C99.9279 32.1953 98.9188 31.196 98.8797 29.1973V23.5039H97.3367V21.4336H98.8797V18.8359H101.702ZM115.509 30.9258C114.812 31.7721 113.849 32.1953 112.618 32.1953C111.486 32.1953 110.62 31.8698 110.021 31.2188C109.428 30.5677 109.126 29.6139 109.112 28.3574V21.4336H111.935V28.2598C111.935 29.36 112.436 29.9102 113.439 29.9102C114.396 29.9102 115.053 29.5781 115.411 28.9141V21.4336H118.243V32H115.587L115.509 30.9258ZM130.41 24.0801C130.026 24.028 129.687 24.002 129.394 24.002C128.326 24.002 127.627 24.3633 127.295 25.0859V32H124.472V21.4336H127.138L127.216 22.6934C127.783 21.7233 128.567 21.2383 129.57 21.2383C129.882 21.2383 130.175 21.2806 130.449 21.3652L130.41 24.0801ZM141.707 32C141.577 31.7461 141.482 31.4303 141.424 31.0527C140.74 31.8145 139.852 32.1953 138.758 32.1953C137.723 32.1953 136.863 31.8958 136.18 31.2969C135.503 30.6979 135.164 29.9427 135.164 29.0312C135.164 27.9115 135.577 27.0521 136.404 26.4531C137.238 25.8542 138.439 25.5514 140.008 25.5449H141.307V24.9395C141.307 24.4512 141.18 24.0605 140.926 23.7676C140.678 23.4746 140.285 23.3281 139.744 23.3281C139.269 23.3281 138.895 23.4421 138.621 23.6699C138.354 23.8978 138.221 24.2103 138.221 24.6074H135.398C135.398 23.9954 135.587 23.429 135.965 22.9082C136.342 22.3874 136.876 21.9805 137.566 21.6875C138.257 21.388 139.031 21.2383 139.891 21.2383C141.193 21.2383 142.225 21.5671 142.986 22.2246C143.755 22.8757 144.139 23.7936 144.139 24.9785V29.5586C144.145 30.5612 144.285 31.3197 144.559 31.834V32H141.707ZM139.373 30.0371C139.79 30.0371 140.174 29.946 140.525 29.7637C140.877 29.5749 141.137 29.3242 141.307 29.0117V27.1953H140.252C138.839 27.1953 138.087 27.6836 137.996 28.6602L137.986 28.8262C137.986 29.1777 138.11 29.4674 138.357 29.6953C138.605 29.9232 138.943 30.0371 139.373 30.0371ZM153.385 32H150.553V17H153.385V32ZM180.159 27.8984L182.073 17.7812H184.993L181.839 32H178.89L176.575 22.4883L174.261 32H171.312L168.157 17.7812H171.077L173.001 27.8789L175.345 17.7812H177.825L180.159 27.8984ZM193.478 32H190.646V21.4336H193.478V32ZM190.48 18.6992C190.48 18.276 190.62 17.9277 190.9 17.6543C191.186 17.3809 191.574 17.2441 192.062 17.2441C192.544 17.2441 192.928 17.3809 193.214 17.6543C193.501 17.9277 193.644 18.276 193.644 18.6992C193.644 19.1289 193.498 19.4805 193.205 19.7539C192.918 20.0273 192.537 20.1641 192.062 20.1641C191.587 20.1641 191.203 20.0273 190.91 19.7539C190.623 19.4805 190.48 19.1289 190.48 18.6992ZM202.891 32H200.059V17H202.891V32ZM208.885 26.6387C208.885 24.9915 209.253 23.6797 209.989 22.7031C210.731 21.7266 211.743 21.2383 213.026 21.2383C214.054 21.2383 214.904 21.6224 215.575 22.3906V17H218.407V32H215.858L215.721 30.877C215.018 31.7559 214.113 32.1953 213.006 32.1953C211.763 32.1953 210.763 31.707 210.008 30.7305C209.26 29.7474 208.885 28.3835 208.885 26.6387ZM211.707 26.8438C211.707 27.8333 211.88 28.5918 212.225 29.1191C212.57 29.6465 213.071 29.9102 213.729 29.9102C214.601 29.9102 215.217 29.5423 215.575 28.8066V24.6367C215.223 23.901 214.614 23.5332 213.748 23.5332C212.388 23.5332 211.707 24.6367 211.707 26.8438ZM227.673 32H224.841V17H227.673V32ZM237.085 32H234.253V21.4336H237.085V32ZM234.087 18.6992C234.087 18.276 234.227 17.9277 234.507 17.6543C234.793 17.3809 235.181 17.2441 235.669 17.2441C236.151 17.2441 236.535 17.3809 236.821 17.6543C237.108 17.9277 237.251 18.276 237.251 18.6992C237.251 19.1289 237.105 19.4805 236.812 19.7539C236.525 20.0273 236.144 20.1641 235.669 20.1641C235.194 20.1641 234.81 20.0273 234.517 19.7539C234.23 19.4805 234.087 19.1289 234.087 18.6992ZM244.291 32V23.5039H242.718V21.4336H244.291V20.5352C244.291 19.3503 244.629 18.4323 245.306 17.7812C245.99 17.1237 246.944 16.7949 248.168 16.7949C248.558 16.7949 249.037 16.86 249.603 16.9902L249.574 19.1777C249.339 19.1191 249.053 19.0898 248.714 19.0898C247.653 19.0898 247.123 19.5879 247.123 20.584V21.4336H249.222V23.5039H247.123V32H244.291ZM259.416 32.1953C257.867 32.1953 256.604 31.7201 255.627 30.7695C254.657 29.819 254.172 28.5527 254.172 26.9707V26.6973C254.172 25.6361 254.377 24.6888 254.787 23.8555C255.197 23.0156 255.777 22.3711 256.525 21.9219C257.281 21.4661 258.14 21.2383 259.104 21.2383C260.549 21.2383 261.685 21.694 262.512 22.6055C263.345 23.5169 263.762 24.8092 263.762 26.4824V27.6348H257.033C257.124 28.3249 257.398 28.8783 257.854 29.2949C258.316 29.7116 258.898 29.9199 259.602 29.9199C260.689 29.9199 261.538 29.526 262.15 28.7383L263.537 30.291C263.114 30.89 262.541 31.3587 261.818 31.6973C261.096 32.0293 260.295 32.1953 259.416 32.1953ZM259.094 23.5234C258.534 23.5234 258.078 23.7122 257.727 24.0898C257.382 24.4674 257.16 25.0078 257.062 25.7109H260.988V25.4863C260.975 24.8613 260.806 24.3796 260.48 24.041C260.155 23.696 259.693 23.5234 259.094 23.5234Z" fill="white"/>
</g>
<line x1="6.40791" y1="33.9888" x2="24.4954" y2="15.9013" stroke="white" stroke-width="5.49288" stroke-linecap="round"/>
<line x1="17.3937" y1="33.9888" x2="35.4811" y2="15.9013" stroke="white" stroke-width="5.49288" stroke-linecap="round"/>
<circle cx="22.4292" cy="26.4292" r="20.5983" stroke="white" stroke-width="3.66192"/>
<defs>
<filter id="filter0_bd" x="47.1553" y="-1.51467" width="246.817" height="59.2851" filterUnits="userSpaceOnUse" color-interpolation-filters="sRGB">
<feFlood flood-opacity="0" result="BackgroundImageFix"/>
<feGaussianBlur in="BackgroundImage" stdDeviation="9.1548"/>
<feComposite in2="SourceAlpha" operator="in" result="effect1_backgroundBlur"/>
<feColorMatrix in="SourceAlpha" type="matrix" values="0 0 0 0 0 0 0 0 0 0 0 0 0 0 0 0 0 0 127 0" result="hardAlpha"/>
<feOffset dx="9.1548" dy="4.51908"/>
<feGaussianBlur stdDeviation="10.528"/>
<feComposite in2="hardAlpha" operator="out"/>
<feColorMatrix type="matrix" values="0 0 0 0 0 0 0 0 0 0 0 0 0 0 0 0 0 0 0.4 0"/>
<feBlend mode="normal" in2="effect1_backgroundBlur" result="effect2_dropShadow"/>
<feBlend mode="normal" in="SourceGraphic" in2="effect2_dropShadow" result="shape"/>
</filter>
</defs>
</svg>
